<svg width="82" height="46" viewBox="0 0 82 46" fill="none" xmlns="http://www.w3.org/2000/svg">
<path d="M63.0923 36.0727C54.0119 42.0862 45.2883 40.0558 40.5654 33.5523C35.8425 27.0489 36.9086 18.5352 45.989 12.5217C55.0694 6.50817 68.7254 5.27207 73.4484 11.7755C78.1713 18.2789 72.1727 30.0592 63.0923 36.0727Z" fill="black"/>
<path d="M63.0923 36.0727C54.0119 42.0862 45.2883 40.0558 40.5654 33.5523C35.8425 27.0489 36.9086 18.5352 45.989 12.5217C55.0694 6.50817 68.7254 5.27207 73.4484 11.7755C78.1713 18.2789 72.1727 30.0592 63.0923 36.0727Z" stroke="black"/>
<path d="M39.6308 28.4483V18.2665H41.7487V22.0946H41.8133C41.9061 21.8891 42.0404 21.6803 42.216 21.4682C42.395 21.2528 42.627 21.0738 42.912 20.9313C43.2004 20.7854 43.5583 20.7125 43.9859 20.7125C44.5427 20.7125 45.0565 20.8583 45.5271 21.15C45.9977 21.4384 46.3739 21.8742 46.6557 22.4575C46.9374 23.0376 47.0782 23.7651 47.0782 24.6401C47.0782 25.4919 46.9407 26.2111 46.6656 26.7977C46.3938 27.3811 46.0226 27.8235 45.552 28.1251C45.0846 28.4234 44.561 28.5726 43.9809 28.5726C43.57 28.5726 43.2203 28.5046 42.9319 28.3688C42.6469 28.2329 42.4132 28.0622 42.2309 27.8567C42.0486 27.6479 41.9094 27.4374 41.8133 27.2253H41.7189V28.4483H39.6308ZM41.7039 24.6301C41.7039 25.0842 41.7669 25.4803 41.8929 25.8183C42.0188 26.1564 42.2011 26.4199 42.4397 26.6088C42.6784 26.7944 42.9684 26.8872 43.3098 26.8872C43.6545 26.8872 43.9461 26.7928 44.1848 26.6038C44.4234 26.4116 44.604 26.1465 44.7267 25.8084C44.8526 25.467 44.9156 25.0743 44.9156 24.6301C44.9156 24.1893 44.8543 23.8015 44.7316 23.4668C44.609 23.132 44.4284 22.8702 44.1897 22.6813C43.9511 22.4923 43.6578 22.3979 43.3098 22.3979C42.9651 22.3979 42.6734 22.489 42.4348 22.6713C42.1994 22.8536 42.0188 23.1121 41.8929 23.4469C41.7669 23.7816 41.7039 24.176 41.7039 24.6301ZM48.4914 28.4483V20.8119H50.6093V28.4483H48.4914ZM49.5553 19.8276C49.2405 19.8276 48.9703 19.7232 48.745 19.5144C48.5229 19.3022 48.4119 19.0487 48.4119 18.7537C48.4119 18.462 48.5229 18.2118 48.745 18.003C48.9703 17.7909 49.2405 17.6848 49.5553 17.6848C49.8702 17.6848 50.1387 17.7909 50.3607 18.003C50.5861 18.2118 50.6988 18.462 50.6988 18.7537C50.6988 19.0487 50.5861 19.3022 50.3607 19.5144C50.1387 19.7232 49.8702 19.8276 49.5553 19.8276ZM56.3677 20.8119V22.4028H51.7689V20.8119H56.3677ZM52.813 18.9824H54.9309V26.1017C54.9309 26.2973 54.9607 26.4497 55.0204 26.5591C55.08 26.6652 55.1629 26.7397 55.2689 26.7828C55.3783 26.8259 55.5043 26.8475 55.6468 26.8475C55.7462 26.8475 55.8456 26.8392 55.9451 26.8226C56.0445 26.8027 56.1207 26.7878 56.1738 26.7778L56.5069 28.3538C56.4008 28.387 56.2516 28.4251 56.0594 28.4682C55.8672 28.5146 55.6335 28.5428 55.3584 28.5527C54.848 28.5726 54.4006 28.5046 54.0161 28.3489C53.6349 28.1931 53.3383 27.9511 53.1262 27.623C52.9141 27.2949 52.8097 26.8806 52.813 26.3801V18.9824ZM61.1454 28.5975C60.3598 28.5975 59.6837 28.4384 59.1169 28.1202C58.5535 27.7987 58.1193 27.3446 57.8144 26.758C57.5095 26.168 57.357 25.4703 57.357 24.6649C57.357 23.8794 57.5095 23.19 57.8144 22.5967C58.1193 22.0035 58.5485 21.5411 59.102 21.2097C59.6588 20.8782 60.3118 20.7125 61.0608 20.7125C61.5646 20.7125 62.0336 20.7937 62.4678 20.9561C62.9053 21.1152 63.2865 21.3555 63.6113 21.677C63.9394 21.9985 64.1946 22.4028 64.3769 22.8901C64.5592 23.374 64.6503 23.9407 64.6503 24.5903V25.172H58.2022V23.8595H62.6567C62.6567 23.5546 62.5904 23.2845 62.4579 23.0492C62.3253 22.8138 62.1413 22.6299 61.906 22.4973C61.674 22.3614 61.4039 22.2935 61.0956 22.2935C60.7741 22.2935 60.4891 22.368 60.2405 22.5172C59.9953 22.663 59.803 22.8602 59.6638 23.1088C59.5246 23.3541 59.4534 23.6275 59.45 23.9291V25.177C59.45 25.5548 59.5196 25.8813 59.6588 26.1564C59.8014 26.4315 60.0019 26.6436 60.2604 26.7928C60.5189 26.9419 60.8255 27.0165 61.1802 27.0165C61.4155 27.0165 61.6309 26.9833 61.8265 26.9171C62.022 26.8508 62.1894 26.7513 62.3286 26.6188C62.4678 26.4862 62.5739 26.3238 62.6468 26.1315L64.6056 26.2608C64.5061 26.7314 64.3023 27.1424 63.9941 27.4938C63.6891 27.8418 63.2947 28.1135 62.8108 28.3091C62.3302 28.5013 61.7751 28.5975 61.1454 28.5975ZM72.3861 22.9895L70.4472 23.1088C70.4141 22.9431 70.3428 22.7939 70.2334 22.6614C70.124 22.5255 69.9799 22.4178 69.8009 22.3382C69.6252 22.2554 69.4148 22.2139 69.1695 22.2139C68.8414 22.2139 68.5646 22.2835 68.3392 22.4227C68.1139 22.5586 68.0012 22.7409 68.0012 22.9696C68.0012 23.1519 68.0741 23.306 68.2199 23.432C68.3658 23.5579 68.616 23.659 68.9706 23.7352L70.3527 24.0136C71.0952 24.1661 71.6487 24.4114 72.0133 24.7494C72.3778 25.0875 72.5601 25.5316 72.5601 26.0818C72.5601 26.5823 72.4126 27.0215 72.1177 27.3993C71.826 27.7771 71.4249 28.0721 70.9145 28.2842C70.4074 28.493 69.8224 28.5975 69.1596 28.5975C68.1487 28.5975 67.3433 28.387 66.7434 27.9661C66.1468 27.5418 65.7971 26.9651 65.6944 26.2359L67.7775 26.1266C67.8404 26.4348 67.9929 26.6701 68.2348 26.8325C68.4768 26.9916 68.7867 27.0712 69.1645 27.0712C69.5357 27.0712 69.834 26.9999 70.0594 26.8574C70.2881 26.7116 70.4041 26.5243 70.4074 26.2956C70.4041 26.1034 70.3229 25.9459 70.1638 25.8233C70.0047 25.6974 69.7595 25.6012 69.428 25.535L68.1056 25.2715C67.3598 25.1223 66.8047 24.8638 66.4401 24.4959C66.0788 24.128 65.8982 23.659 65.8982 23.0889C65.8982 22.5984 66.0308 22.1758 66.2959 21.8212C66.5644 21.4665 66.9406 21.1931 67.4245 21.0009C67.9117 20.8086 68.4818 20.7125 69.1347 20.7125C70.0992 20.7125 70.8582 20.9163 71.4117 21.324C71.9685 21.7317 72.2933 22.2868 72.3861 22.9895Z" fill="white"/>
<path d="M0.948153 28.4483V17.5392H8.29901V19.4408H3.25462V22.0403H7.92081V23.9419H3.25462V26.5467H8.32031V28.4483H0.948153ZM12.4232 28.6028C11.9012 28.6028 11.436 28.5122 11.0276 28.3311C10.6192 28.1465 10.2961 27.8748 10.0581 27.5161C9.82377 27.1539 9.70659 26.7029 9.70659 26.1631C9.70659 25.7086 9.79004 25.3269 9.95694 25.0179C10.1238 24.709 10.3511 24.4604 10.6388 24.2722C10.9264 24.084 11.2531 23.9419 11.6189 23.846C11.9882 23.7501 12.3753 23.6827 12.7801 23.6436C13.2559 23.5939 13.6395 23.5477 13.9307 23.5051C14.2219 23.459 14.4332 23.3915 14.5645 23.3027C14.6959 23.2139 14.7616 23.0825 14.7616 22.9085V22.8766C14.7616 22.5392 14.6551 22.2782 14.442 22.0935C14.2325 21.9089 13.9342 21.8166 13.5471 21.8166C13.1388 21.8166 12.8138 21.9071 12.5724 22.0882C12.3309 22.2658 12.1711 22.4895 12.093 22.7594L9.99423 22.5889C10.1008 22.0918 10.3103 21.6621 10.6228 21.2999C10.9353 20.9341 11.3383 20.6536 11.8319 20.4582C12.3291 20.2594 12.9044 20.16 13.5578 20.16C14.0123 20.16 14.4474 20.2132 14.8628 20.3198C15.2819 20.4263 15.653 20.5914 15.9761 20.8151C16.3028 21.0389 16.5603 21.3265 16.7485 21.6781C16.9367 22.0261 17.0308 22.4433 17.0308 22.9298V28.4483H14.8788V27.3137H14.8149C14.6835 27.5694 14.5077 27.7949 14.2876 27.9902C14.0674 28.182 13.8028 28.3329 13.4939 28.443C13.1849 28.5495 12.828 28.6028 12.4232 28.6028ZM13.0731 27.0367C13.4069 27.0367 13.7016 26.971 13.9573 26.8396C14.213 26.7047 14.4136 26.5236 14.5592 26.2963C14.7048 26.069 14.7776 25.8116 14.7776 25.5239V24.6557C14.7066 24.7019 14.6089 24.7445 14.4846 24.7835C14.3639 24.819 14.2272 24.8528 14.0745 24.8847C13.9218 24.9131 13.7691 24.9398 13.6164 24.9646C13.4637 24.9859 13.3252 25.0055 13.2009 25.0232C12.9346 25.0623 12.702 25.1244 12.5031 25.2097C12.3042 25.2949 12.1498 25.4103 12.0397 25.5559C11.9296 25.6979 11.8746 25.8755 11.8746 26.0886C11.8746 26.3975 11.9864 26.6337 12.2101 26.797C12.4374 26.9568 12.7251 27.0367 13.0731 27.0367ZM25.5988 22.5996L23.5214 22.7274C23.4859 22.5499 23.4095 22.3901 23.2923 22.248C23.1752 22.1024 23.0207 21.987 22.8289 21.9018C22.6407 21.813 22.4152 21.7686 22.1524 21.7686C21.8009 21.7686 21.5044 21.8432 21.2629 21.9923C21.0214 22.1379 20.9007 22.3332 20.9007 22.5783C20.9007 22.7736 20.9788 22.9387 21.135 23.0737C21.2913 23.2086 21.5594 23.3169 21.9394 23.3986L23.4202 23.6969C24.2156 23.8602 24.8087 24.123 25.1993 24.4852C25.5899 24.8475 25.7852 25.3233 25.7852 25.9128C25.7852 26.449 25.6272 26.9195 25.3112 27.3244C24.9987 27.7292 24.569 28.0452 24.0221 28.2725C23.4788 28.4962 22.852 28.6081 22.1418 28.6081C21.0587 28.6081 20.1958 28.3826 19.553 27.9316C18.9138 27.4771 18.5392 26.8592 18.4291 26.0779L20.661 25.9607C20.7284 26.291 20.8918 26.5431 21.151 26.7171C21.4102 26.8876 21.7423 26.9728 22.1471 26.9728C22.5448 26.9728 22.8644 26.8965 23.1059 26.7438C23.3509 26.5875 23.4752 26.3869 23.4788 26.1418C23.4752 25.9359 23.3882 25.7672 23.2178 25.6358C23.0473 25.5009 22.7845 25.3979 22.4294 25.3269L21.0125 25.0445C20.2135 24.8847 19.6187 24.6077 19.2281 24.2136C18.841 23.8194 18.6475 23.3169 18.6475 22.7061C18.6475 22.1805 18.7895 21.7278 19.0736 21.3478C19.3612 20.9678 19.7643 20.6749 20.2828 20.4689C20.8048 20.2629 21.4156 20.16 22.1151 20.16C23.1485 20.16 23.9617 20.3783 24.5548 20.8151C25.1514 21.2519 25.4994 21.8467 25.5988 22.5996ZM28.6151 31.5165C28.3274 31.5165 28.0575 31.4934 27.8054 31.4472C27.5568 31.4046 27.3509 31.3496 27.1875 31.2821L27.6989 29.5882C27.9652 29.6699 28.2049 29.7143 28.418 29.7214C28.6346 29.7285 28.821 29.6788 28.9773 29.5722C29.1371 29.4657 29.2667 29.2846 29.3661 29.0289L29.4993 28.6827L26.5643 20.2665H28.9506L30.6445 26.275H30.7298L32.4396 20.2665H34.842L31.6619 29.3325C31.5092 29.7729 31.3015 30.1564 31.0387 30.4831C30.7795 30.8134 30.451 31.0673 30.0533 31.2448C29.6555 31.4259 29.1761 31.5165 28.6151 31.5165Z" fill="black"/>
</svg>
